<?xml version="1.0" encoding="UTF-8" standalone="no"?>
<!DOCTYPE svg PUBLIC "-//W3C//DTD SVG 1.1//EN"
 "http://www.w3.org/Graphics/SVG/1.1/DTD/svg11.dtd">
<!-- Generated by graphviz version 2.50.0 (0)
 -->
<!-- Pages: 1 -->
<svg width="1303pt" height="2440pt"
 viewBox="0.00 0.00 1303.34 2440.48" xmlns="http://www.w3.org/2000/svg" xmlns:xlink="http://www.w3.org/1999/xlink">
<g id="graph0" class="graph" transform="scale(1 1) rotate(0) translate(4 2436.48)">
<polygon fill="white" stroke="transparent" points="-4,4 -4,-2436.48 1299.34,-2436.48 1299.34,4 -4,4"/>
<!-- &#45;1152302034994885319 -->
<g id="node1" class="node">
<title>&#45;1152302034994885319</title>
<ellipse fill="none" stroke="black" cx="860.96" cy="-1215.74" rx="40.09" ry="40.09"/>
<text text-anchor="middle" x="860.96" y="-1212.04" font-family="Helvetica,sans-Serif" font-size="14.00">lambda</text>
</g>
<!-- &#45;7945689854546291087 -->
<g id="node2" class="node">
<title>&#45;7945689854546291087</title>
<polygon fill="none" stroke="black" points="991.26,-1233.74 937.26,-1233.74 937.26,-1197.74 991.26,-1197.74 991.26,-1233.74"/>
</g>
<!-- &#45;1152302034994885319&#45;&gt;&#45;7945689854546291087 -->
<g id="edge1" class="edge">
<title>&#45;1152302034994885319&#45;&gt;&#45;7945689854546291087</title>
<path fill="none" stroke="black" d="M901.42,-1215.74C909.85,-1215.74 918.73,-1215.74 927.03,-1215.74"/>
<polygon fill="black" stroke="black" points="927.18,-1219.24 937.18,-1215.74 927.18,-1212.24 927.18,-1219.24"/>
</g>
<!-- &#45;5414208751868686205 -->
<g id="node63" class="node">
<title>&#45;5414208751868686205</title>
<ellipse fill="none" stroke="black" cx="1116.3" cy="-1215.74" rx="89.08" ry="89.08"/>
<text text-anchor="middle" x="1116.3" y="-1212.04" font-family="Helvetica,sans-Serif" font-size="14.00">add_words_to_jieba</text>
</g>
<!-- &#45;7945689854546291087&#45;&gt;&#45;5414208751868686205 -->
<g id="edge63" class="edge">
<title>&#45;7945689854546291087&#45;&gt;&#45;5414208751868686205</title>
<path fill="none" stroke="black" d="M991.39,-1215.74C998.92,-1215.74 1007.6,-1215.74 1016.81,-1215.74"/>
<polygon fill="black" stroke="black" points="1016.98,-1219.24 1026.98,-1215.74 1016.98,-1212.24 1016.98,-1219.24"/>
</g>
<!-- &#45;1836370678624441789 -->
<g id="node3" class="node">
<title>&#45;1836370678624441789</title>
<polygon fill="none" stroke="black" points="784.67,-2153.74 730.67,-2153.74 730.67,-2117.74 784.67,-2117.74 784.67,-2153.74"/>
</g>
<!-- &#45;1836370678624441789&#45;&gt;&#45;1152302034994885319 -->
<g id="edge2" class="edge">
<title>&#45;1836370678624441789&#45;&gt;&#45;1152302034994885319</title>
<path fill="none" stroke="black" d="M761.04,-2117.58C765.75,-2081.33 776.53,-1997.39 784.67,-1926.74 813.2,-1678.96 843.33,-1382.12 854.97,-1265.88"/>
<polygon fill="black" stroke="black" points="858.46,-1266.16 855.97,-1255.86 851.49,-1265.46 858.46,-1266.16"/>
</g>
<!-- &#45;8453967651920228060 -->
<g id="node4" class="node">
<title>&#45;8453967651920228060</title>
<polygon fill="none" stroke="black" points="784.67,-1917.74 730.67,-1917.74 730.67,-1881.74 784.67,-1881.74 784.67,-1917.74"/>
</g>
<!-- &#45;8453967651920228060&#45;&gt;&#45;1152302034994885319 -->
<g id="edge3" class="edge">
<title>&#45;8453967651920228060&#45;&gt;&#45;1152302034994885319</title>
<path fill="none" stroke="black" d="M761.37,-1881.44C774.53,-1792.63 831.92,-1405.06 852.55,-1265.8"/>
<polygon fill="black" stroke="black" points="856.02,-1266.22 854.03,-1255.82 849.1,-1265.2 856.02,-1266.22"/>
</g>
<!-- &#45;3301467539002074172 -->
<g id="node5" class="node">
<title>&#45;3301467539002074172</title>
<polygon fill="none" stroke="black" points="784.67,-1690.74 730.67,-1690.74 730.67,-1654.74 784.67,-1654.74 784.67,-1690.74"/>
</g>
<!-- &#45;3301467539002074172&#45;&gt;&#45;1152302034994885319 -->
<g id="edge4" class="edge">
<title>&#45;3301467539002074172&#45;&gt;&#45;1152302034994885319</title>
<path fill="none" stroke="black" d="M762.7,-1654.54C777.18,-1589.22 826.85,-1365.13 849.07,-1264.89"/>
<polygon fill="black" stroke="black" points="852.51,-1265.53 851.26,-1255.01 845.68,-1264.02 852.51,-1265.53"/>
</g>
<!-- 6167392332347175526 -->
<g id="node6" class="node">
<title>6167392332347175526</title>
<polygon fill="none" stroke="black" points="784.67,-1481.74 730.67,-1481.74 730.67,-1445.74 784.67,-1445.74 784.67,-1481.74"/>
</g>
<!-- 6167392332347175526&#45;&gt;&#45;1152302034994885319 -->
<g id="edge5" class="edge">
<title>6167392332347175526&#45;&gt;&#45;1152302034994885319</title>
<path fill="none" stroke="black" d="M766.11,-1445.5C781.72,-1407.3 818.26,-1317.85 840.86,-1262.5"/>
<polygon fill="black" stroke="black" points="844.23,-1263.5 844.78,-1252.92 837.75,-1260.85 844.23,-1263.5"/>
</g>
<!-- 7693233135547611086 -->
<g id="node7" class="node">
<title>7693233135547611086</title>
<polygon fill="none" stroke="black" points="784.67,-1308.74 730.67,-1308.74 730.67,-1272.74 784.67,-1272.74 784.67,-1308.74"/>
</g>
<!-- 7693233135547611086&#45;&gt;&#45;1152302034994885319 -->
<g id="edge6" class="edge">
<title>7693233135547611086&#45;&gt;&#45;1152302034994885319</title>
<path fill="none" stroke="black" d="M783.19,-1272.58C794.13,-1264.48 807.31,-1254.72 819.64,-1245.59"/>
<polygon fill="black" stroke="black" points="822.05,-1248.17 828,-1239.4 817.88,-1242.54 822.05,-1248.17"/>
</g>
<!-- &#45;5898944572577176530 -->
<g id="node8" class="node">
<title>&#45;5898944572577176530</title>
<polygon fill="none" stroke="black" points="784.67,-1206.74 730.67,-1206.74 730.67,-1170.74 784.67,-1170.74 784.67,-1206.74"/>
</g>
<!-- &#45;5898944572577176530&#45;&gt;&#45;1152302034994885319 -->
<g id="edge7" class="edge">
<title>&#45;5898944572577176530&#45;&gt;&#45;1152302034994885319</title>
<path fill="none" stroke="black" d="M784.75,-1195.69C793.11,-1197.92 802.63,-1200.46 812.04,-1202.97"/>
<polygon fill="black" stroke="black" points="811.17,-1206.36 821.74,-1205.55 812.98,-1199.59 811.17,-1206.36"/>
</g>
<!-- 7781059567431018160 -->
<g id="node9" class="node">
<title>7781059567431018160</title>
<polygon fill="none" stroke="black" points="784.67,-1104.74 730.67,-1104.74 730.67,-1068.74 784.67,-1068.74 784.67,-1104.74"/>
</g>
<!-- 7781059567431018160&#45;&gt;&#45;1152302034994885319 -->
<g id="edge8" class="edge">
<title>7781059567431018160&#45;&gt;&#45;1152302034994885319</title>
<path fill="none" stroke="black" d="M772.96,-1104.95C787.45,-1123.4 810.33,-1152.53 828.99,-1176.3"/>
<polygon fill="black" stroke="black" points="826.46,-1178.75 835.39,-1184.45 831.97,-1174.42 826.46,-1178.75"/>
</g>
<!-- &#45;4658518901276857483 -->
<g id="node10" class="node">
<title>&#45;4658518901276857483</title>
<polygon fill="none" stroke="black" points="784.67,-955.74 730.67,-955.74 730.67,-919.74 784.67,-919.74 784.67,-955.74"/>
</g>
<!-- &#45;4658518901276857483&#45;&gt;&#45;1152302034994885319 -->
<g id="edge9" class="edge">
<title>&#45;4658518901276857483&#45;&gt;&#45;1152302034994885319</title>
<path fill="none" stroke="black" d="M765.31,-955.98C780.85,-998.63 819.98,-1106.01 842.76,-1168.54"/>
<polygon fill="black" stroke="black" points="839.56,-1169.98 846.27,-1178.18 846.14,-1167.58 839.56,-1169.98"/>
</g>
<!-- &#45;8093508103757164936 -->
<g id="node11" class="node">
<title>&#45;8093508103757164936</title>
<polygon fill="none" stroke="black" points="784.67,-710.74 730.67,-710.74 730.67,-674.74 784.67,-674.74 784.67,-710.74"/>
</g>
<!-- &#45;8093508103757164936&#45;&gt;&#45;1152302034994885319 -->
<g id="edge10" class="edge">
<title>&#45;8093508103757164936&#45;&gt;&#45;1152302034994885319</title>
<path fill="none" stroke="black" d="M762.15,-710.74C776.15,-783.03 828.57,-1053.67 850.37,-1166.19"/>
<polygon fill="black" stroke="black" points="846.98,-1167.11 852.31,-1176.26 853.85,-1165.77 846.98,-1167.11"/>
</g>
<!-- &#45;6913837333943443683 -->
<g id="node12" class="node">
<title>&#45;6913837333943443683</title>
<polygon fill="none" stroke="black" points="784.67,-274.74 730.67,-274.74 730.67,-238.74 784.67,-238.74 784.67,-274.74"/>
</g>
<!-- &#45;6913837333943443683&#45;&gt;&#45;1152302034994885319 -->
<g id="edge11" class="edge">
<title>&#45;6913837333943443683&#45;&gt;&#45;1152302034994885319</title>
<path fill="none" stroke="black" d="M760.6,-275.04C772.49,-387.58 835.78,-986.83 854.65,-1165.45"/>
<polygon fill="black" stroke="black" points="851.19,-1166.04 855.72,-1175.62 858.15,-1165.31 851.19,-1166.04"/>
</g>
<!-- 2797391526560854434 -->
<g id="node13" class="node">
<title>2797391526560854434</title>
<ellipse fill="none" stroke="black" cx="260.59" cy="-1583.74" rx="80.69" ry="80.69"/>
<text text-anchor="middle" x="260.59" y="-1580.04" font-family="Helvetica,sans-Serif" font-size="14.00">to_pyarrow_string</text>
</g>
<!-- 2948695566513890554 -->
<g id="node14" class="node">
<title>2948695566513890554</title>
<polygon fill="none" stroke="black" points="431.19,-1601.74 377.19,-1601.74 377.19,-1565.74 431.19,-1565.74 431.19,-1601.74"/>
<text text-anchor="middle" x="404.19" y="-1580.04" font-family="Helvetica,sans-Serif" font-size="14.00">0</text>
</g>
<!-- 2797391526560854434&#45;&gt;2948695566513890554 -->
<g id="edge12" class="edge">
<title>2797391526560854434&#45;&gt;2948695566513890554</title>
<path fill="none" stroke="black" d="M341.49,-1583.74C350.29,-1583.74 358.9,-1583.74 366.76,-1583.74"/>
<polygon fill="black" stroke="black" points="366.96,-1587.24 376.96,-1583.74 366.96,-1580.24 366.96,-1587.24"/>
</g>
<!-- &#45;1304419619860945772 -->
<g id="node53" class="node">
<title>&#45;1304419619860945772</title>
<ellipse fill="none" stroke="black" cx="580.93" cy="-1583.74" rx="113.98" ry="113.98"/>
<text text-anchor="middle" x="580.93" y="-1580.04" font-family="Helvetica,sans-Serif" font-size="14.00">get_names_from_partition</text>
</g>
<!-- 2948695566513890554&#45;&gt;&#45;1304419619860945772 -->
<g id="edge43" class="edge">
<title>2948695566513890554&#45;&gt;&#45;1304419619860945772</title>
<path fill="none" stroke="black" d="M431.35,-1583.74C438.76,-1583.74 447.35,-1583.74 456.59,-1583.74"/>
<polygon fill="black" stroke="black" points="456.85,-1587.24 466.85,-1583.74 456.85,-1580.24 456.85,-1587.24"/>
</g>
<!-- 240201032286473657 -->
<g id="node15" class="node">
<title>240201032286473657</title>
<polygon fill="none" stroke="black" points="144,-1601.74 90,-1601.74 90,-1565.74 144,-1565.74 144,-1601.74"/>
<text text-anchor="middle" x="117" y="-1580.04" font-family="Helvetica,sans-Serif" font-size="14.00">0</text>
</g>
<!-- 240201032286473657&#45;&gt;2797391526560854434 -->
<g id="edge13" class="edge">
<title>240201032286473657&#45;&gt;2797391526560854434</title>
<path fill="none" stroke="black" d="M144.3,-1583.74C151.88,-1583.74 160.6,-1583.74 169.78,-1583.74"/>
<polygon fill="black" stroke="black" points="169.89,-1587.24 179.89,-1583.74 169.89,-1580.24 169.89,-1587.24"/>
</g>
<!-- 7036710698999747042 -->
<g id="node16" class="node">
<title>7036710698999747042</title>
<ellipse fill="none" stroke="black" cx="260.59" cy="-2318.74" rx="80.69" ry="80.69"/>
<text text-anchor="middle" x="260.59" y="-2315.04" font-family="Helvetica,sans-Serif" font-size="14.00">to_pyarrow_string</text>
</g>
<!-- &#45;1944378462458805812 -->
<g id="node17" class="node">
<title>&#45;1944378462458805812</title>
<polygon fill="none" stroke="black" points="431.19,-2336.74 377.19,-2336.74 377.19,-2300.74 431.19,-2300.74 431.19,-2336.74"/>
<text text-anchor="middle" x="404.19" y="-2315.04" font-family="Helvetica,sans-Serif" font-size="14.00">1</text>
</g>
<!-- 7036710698999747042&#45;&gt;&#45;1944378462458805812 -->
<g id="edge14" class="edge">
<title>7036710698999747042&#45;&gt;&#45;1944378462458805812</title>
<path fill="none" stroke="black" d="M341.49,-2318.74C350.29,-2318.74 358.9,-2318.74 366.76,-2318.74"/>
<polygon fill="black" stroke="black" points="366.96,-2322.24 376.96,-2318.74 366.96,-2315.24 366.96,-2322.24"/>
</g>
<!-- &#45;7736330199813293682 -->
<g id="node54" class="node">
<title>&#45;7736330199813293682</title>
<ellipse fill="none" stroke="black" cx="580.93" cy="-2318.74" rx="113.98" ry="113.98"/>
<text text-anchor="middle" x="580.93" y="-2315.04" font-family="Helvetica,sans-Serif" font-size="14.00">get_names_from_partition</text>
</g>
<!-- &#45;1944378462458805812&#45;&gt;&#45;7736330199813293682 -->
<g id="edge45" class="edge">
<title>&#45;1944378462458805812&#45;&gt;&#45;7736330199813293682</title>
<path fill="none" stroke="black" d="M431.35,-2318.74C438.76,-2318.74 447.35,-2318.74 456.59,-2318.74"/>
<polygon fill="black" stroke="black" points="456.85,-2322.24 466.85,-2318.74 456.85,-2315.24 456.85,-2322.24"/>
</g>
<!-- 6747841788388472082 -->
<g id="node18" class="node">
<title>6747841788388472082</title>
<polygon fill="none" stroke="black" points="144,-2336.74 90,-2336.74 90,-2300.74 144,-2300.74 144,-2336.74"/>
<text text-anchor="middle" x="117" y="-2315.04" font-family="Helvetica,sans-Serif" font-size="14.00">1</text>
</g>
<!-- 6747841788388472082&#45;&gt;7036710698999747042 -->
<g id="edge15" class="edge">
<title>6747841788388472082&#45;&gt;7036710698999747042</title>
<path fill="none" stroke="black" d="M144.3,-2318.74C151.88,-2318.74 160.6,-2318.74 169.78,-2318.74"/>
<polygon fill="black" stroke="black" points="169.89,-2322.24 179.89,-2318.74 169.89,-2315.24 169.89,-2322.24"/>
</g>
<!-- &#45;4325311164138111999 -->
<g id="node19" class="node">
<title>&#45;4325311164138111999</title>
<ellipse fill="none" stroke="black" cx="260.59" cy="-113.74" rx="80.69" ry="80.69"/>
<text text-anchor="middle" x="260.59" y="-110.04" font-family="Helvetica,sans-Serif" font-size="14.00">to_pyarrow_string</text>
</g>
<!-- 4563262293643192613 -->
<g id="node20" class="node">
<title>4563262293643192613</title>
<polygon fill="none" stroke="black" points="431.19,-131.74 377.19,-131.74 377.19,-95.74 431.19,-95.74 431.19,-131.74"/>
<text text-anchor="middle" x="404.19" y="-110.04" font-family="Helvetica,sans-Serif" font-size="14.00">2</text>
</g>
<!-- &#45;4325311164138111999&#45;&gt;4563262293643192613 -->
<g id="edge16" class="edge">
<title>&#45;4325311164138111999&#45;&gt;4563262293643192613</title>
<path fill="none" stroke="black" d="M341.49,-113.74C350.29,-113.74 358.9,-113.74 366.76,-113.74"/>
<polygon fill="black" stroke="black" points="366.96,-117.24 376.96,-113.74 366.96,-110.24 366.96,-117.24"/>
</g>
<!-- 5509683580339492381 -->
<g id="node55" class="node">
<title>5509683580339492381</title>
<ellipse fill="none" stroke="black" cx="580.93" cy="-113.74" rx="113.98" ry="113.98"/>
<text text-anchor="middle" x="580.93" y="-110.04" font-family="Helvetica,sans-Serif" font-size="14.00">get_names_from_partition</text>
</g>
<!-- 4563262293643192613&#45;&gt;5509683580339492381 -->
<g id="edge47" class="edge">
<title>4563262293643192613&#45;&gt;5509683580339492381</title>
<path fill="none" stroke="black" d="M431.35,-113.74C438.76,-113.74 447.35,-113.74 456.59,-113.74"/>
<polygon fill="black" stroke="black" points="456.85,-117.24 466.85,-113.74 456.85,-110.24 456.85,-117.24"/>
</g>
<!-- &#45;2543589623568592412 -->
<g id="node21" class="node">
<title>&#45;2543589623568592412</title>
<polygon fill="none" stroke="black" points="144,-131.74 90,-131.74 90,-95.74 144,-95.74 144,-131.74"/>
<text text-anchor="middle" x="117" y="-110.04" font-family="Helvetica,sans-Serif" font-size="14.00">2</text>
</g>
<!-- &#45;2543589623568592412&#45;&gt;&#45;4325311164138111999 -->
<g id="edge17" class="edge">
<title>&#45;2543589623568592412&#45;&gt;&#45;4325311164138111999</title>
<path fill="none" stroke="black" d="M144.3,-113.74C151.88,-113.74 160.6,-113.74 169.78,-113.74"/>
<polygon fill="black" stroke="black" points="169.89,-117.24 179.89,-113.74 169.89,-110.24 169.89,-117.24"/>
</g>
<!-- &#45;5362150576410432642 -->
<g id="node22" class="node">
<title>&#45;5362150576410432642</title>
<ellipse fill="none" stroke="black" cx="260.59" cy="-2073.74" rx="80.69" ry="80.69"/>
<text text-anchor="middle" x="260.59" y="-2070.04" font-family="Helvetica,sans-Serif" font-size="14.00">to_pyarrow_string</text>
</g>
<!-- &#45;4728169118313871881 -->
<g id="node23" class="node">
<title>&#45;4728169118313871881</title>
<polygon fill="none" stroke="black" points="431.19,-2091.74 377.19,-2091.74 377.19,-2055.74 431.19,-2055.74 431.19,-2091.74"/>
<text text-anchor="middle" x="404.19" y="-2070.04" font-family="Helvetica,sans-Serif" font-size="14.00">3</text>
</g>
<!-- &#45;5362150576410432642&#45;&gt;&#45;4728169118313871881 -->
<g id="edge18" class="edge">
<title>&#45;5362150576410432642&#45;&gt;&#45;4728169118313871881</title>
<path fill="none" stroke="black" d="M341.49,-2073.74C350.29,-2073.74 358.9,-2073.74 366.76,-2073.74"/>
<polygon fill="black" stroke="black" points="366.96,-2077.24 376.96,-2073.74 366.96,-2070.24 366.96,-2077.24"/>
</g>
<!-- &#45;4067772985026709458 -->
<g id="node56" class="node">
<title>&#45;4067772985026709458</title>
<ellipse fill="none" stroke="black" cx="580.93" cy="-2073.74" rx="113.98" ry="113.98"/>
<text text-anchor="middle" x="580.93" y="-2070.04" font-family="Helvetica,sans-Serif" font-size="14.00">get_names_from_partition</text>
</g>
<!-- &#45;4728169118313871881&#45;&gt;&#45;4067772985026709458 -->
<g id="edge49" class="edge">
<title>&#45;4728169118313871881&#45;&gt;&#45;4067772985026709458</title>
<path fill="none" stroke="black" d="M431.35,-2073.74C438.76,-2073.74 447.35,-2073.74 456.59,-2073.74"/>
<polygon fill="black" stroke="black" points="456.85,-2077.24 466.85,-2073.74 456.85,-2070.24 456.85,-2077.24"/>
</g>
<!-- 3964051132533406013 -->
<g id="node24" class="node">
<title>3964051132533406013</title>
<polygon fill="none" stroke="black" points="144,-2091.74 90,-2091.74 90,-2055.74 144,-2055.74 144,-2091.74"/>
<text text-anchor="middle" x="117" y="-2070.04" font-family="Helvetica,sans-Serif" font-size="14.00">3</text>
</g>
<!-- 3964051132533406013&#45;&gt;&#45;5362150576410432642 -->
<g id="edge19" class="edge">
<title>3964051132533406013&#45;&gt;&#45;5362150576410432642</title>
<path fill="none" stroke="black" d="M144.3,-2073.74C151.88,-2073.74 160.6,-2073.74 169.78,-2073.74"/>
<polygon fill="black" stroke="black" points="169.89,-2077.24 179.89,-2073.74 169.89,-2070.24 169.89,-2077.24"/>
</g>
<!-- &#45;6166277481559005684 -->
<g id="node25" class="node">
<title>&#45;6166277481559005684</title>
<ellipse fill="none" stroke="black" cx="260.59" cy="-1338.74" rx="80.69" ry="80.69"/>
<text text-anchor="middle" x="260.59" y="-1335.04" font-family="Helvetica,sans-Serif" font-size="14.00">to_pyarrow_string</text>
</g>
<!-- 1779471637788126544 -->
<g id="node26" class="node">
<title>1779471637788126544</title>
<polygon fill="none" stroke="black" points="431.19,-1356.74 377.19,-1356.74 377.19,-1320.74 431.19,-1320.74 431.19,-1356.74"/>
<text text-anchor="middle" x="404.19" y="-1335.04" font-family="Helvetica,sans-Serif" font-size="14.00">4</text>
</g>
<!-- &#45;6166277481559005684&#45;&gt;1779471637788126544 -->
<g id="edge20" class="edge">
<title>&#45;6166277481559005684&#45;&gt;1779471637788126544</title>
<path fill="none" stroke="black" d="M341.49,-1338.74C350.29,-1338.74 358.9,-1338.74 366.76,-1338.74"/>
<polygon fill="black" stroke="black" points="366.96,-1342.24 376.96,-1338.74 366.96,-1335.24 366.96,-1342.24"/>
</g>
<!-- &#45;1380778483516929653 -->
<g id="node57" class="node">
<title>&#45;1380778483516929653</title>
<ellipse fill="none" stroke="black" cx="580.93" cy="-1338.74" rx="113.98" ry="113.98"/>
<text text-anchor="middle" x="580.93" y="-1335.04" font-family="Helvetica,sans-Serif" font-size="14.00">get_names_from_partition</text>
</g>
<!-- 1779471637788126544&#45;&gt;&#45;1380778483516929653 -->
<g id="edge51" class="edge">
<title>1779471637788126544&#45;&gt;&#45;1380778483516929653</title>
<path fill="none" stroke="black" d="M431.35,-1338.74C438.76,-1338.74 447.35,-1338.74 456.59,-1338.74"/>
<polygon fill="black" stroke="black" points="456.85,-1342.24 466.85,-1338.74 456.85,-1335.24 456.85,-1342.24"/>
</g>
<!-- &#45;929022896439290353 -->
<g id="node27" class="node">
<title>&#45;929022896439290353</title>
<polygon fill="none" stroke="black" points="144,-1356.74 90,-1356.74 90,-1320.74 144,-1320.74 144,-1356.74"/>
<text text-anchor="middle" x="117" y="-1335.04" font-family="Helvetica,sans-Serif" font-size="14.00">4</text>
</g>
<!-- &#45;929022896439290353&#45;&gt;&#45;6166277481559005684 -->
<g id="edge21" class="edge">
<title>&#45;929022896439290353&#45;&gt;&#45;6166277481559005684</title>
<path fill="none" stroke="black" d="M144.3,-1338.74C151.88,-1338.74 160.6,-1338.74 169.78,-1338.74"/>
<polygon fill="black" stroke="black" points="169.89,-1342.24 179.89,-1338.74 169.89,-1335.24 169.89,-1342.24"/>
</g>
<!-- 918444729012686891 -->
<g id="node28" class="node">
<title>918444729012686891</title>
<ellipse fill="none" stroke="black" cx="260.59" cy="-1093.74" rx="80.69" ry="80.69"/>
<text text-anchor="middle" x="260.59" y="-1090.04" font-family="Helvetica,sans-Serif" font-size="14.00">to_pyarrow_string</text>
</g>
<!-- 8287112393890124969 -->
<g id="node29" class="node">
<title>8287112393890124969</title>
<polygon fill="none" stroke="black" points="431.19,-1111.74 377.19,-1111.74 377.19,-1075.74 431.19,-1075.74 431.19,-1111.74"/>
<text text-anchor="middle" x="404.19" y="-1090.04" font-family="Helvetica,sans-Serif" font-size="14.00">5</text>
</g>
<!-- 918444729012686891&#45;&gt;8287112393890124969 -->
<g id="edge22" class="edge">
<title>918444729012686891&#45;&gt;8287112393890124969</title>
<path fill="none" stroke="black" d="M341.49,-1093.74C350.29,-1093.74 358.9,-1093.74 366.76,-1093.74"/>
<polygon fill="black" stroke="black" points="366.96,-1097.24 376.96,-1093.74 366.96,-1090.24 366.96,-1097.24"/>
</g>
<!-- &#45;5709590469486948277 -->
<g id="node58" class="node">
<title>&#45;5709590469486948277</title>
<ellipse fill="none" stroke="black" cx="580.93" cy="-1093.74" rx="113.98" ry="113.98"/>
<text text-anchor="middle" x="580.93" y="-1090.04" font-family="Helvetica,sans-Serif" font-size="14.00">get_names_from_partition</text>
</g>
<!-- 8287112393890124969&#45;&gt;&#45;5709590469486948277 -->
<g id="edge53" class="edge">
<title>8287112393890124969&#45;&gt;&#45;5709590469486948277</title>
<path fill="none" stroke="black" d="M431.35,-1093.74C438.76,-1093.74 447.35,-1093.74 456.59,-1093.74"/>
<polygon fill="black" stroke="black" points="456.85,-1097.24 466.85,-1093.74 456.85,-1090.24 456.85,-1097.24"/>
</g>
<!-- 5578617859662708072 -->
<g id="node30" class="node">
<title>5578617859662708072</title>
<polygon fill="none" stroke="black" points="144,-1111.74 90,-1111.74 90,-1075.74 144,-1075.74 144,-1111.74"/>
<text text-anchor="middle" x="117" y="-1090.04" font-family="Helvetica,sans-Serif" font-size="14.00">5</text>
</g>
<!-- 5578617859662708072&#45;&gt;918444729012686891 -->
<g id="edge23" class="edge">
<title>5578617859662708072&#45;&gt;918444729012686891</title>
<path fill="none" stroke="black" d="M144.3,-1093.74C151.88,-1093.74 160.6,-1093.74 169.78,-1093.74"/>
<polygon fill="black" stroke="black" points="169.89,-1097.24 179.89,-1093.74 169.89,-1090.24 169.89,-1097.24"/>
</g>
<!-- 5157763901451579499 -->
<g id="node31" class="node">
<title>5157763901451579499</title>
<ellipse fill="none" stroke="black" cx="260.59" cy="-1828.74" rx="80.69" ry="80.69"/>
<text text-anchor="middle" x="260.59" y="-1825.04" font-family="Helvetica,sans-Serif" font-size="14.00">to_pyarrow_string</text>
</g>
<!-- 3394038364917428603 -->
<g id="node32" class="node">
<title>3394038364917428603</title>
<polygon fill="none" stroke="black" points="431.19,-1846.74 377.19,-1846.74 377.19,-1810.74 431.19,-1810.74 431.19,-1846.74"/>
<text text-anchor="middle" x="404.19" y="-1825.04" font-family="Helvetica,sans-Serif" font-size="14.00">6</text>
</g>
<!-- 5157763901451579499&#45;&gt;3394038364917428603 -->
<g id="edge24" class="edge">
<title>5157763901451579499&#45;&gt;3394038364917428603</title>
<path fill="none" stroke="black" d="M341.49,-1828.74C350.29,-1828.74 358.9,-1828.74 366.76,-1828.74"/>
<polygon fill="black" stroke="black" points="366.96,-1832.24 376.96,-1828.74 366.96,-1825.24 366.96,-1832.24"/>
</g>
<!-- 815933233050515066 -->
<g id="node59" class="node">
<title>815933233050515066</title>
<ellipse fill="none" stroke="black" cx="580.93" cy="-1828.74" rx="113.98" ry="113.98"/>
<text text-anchor="middle" x="580.93" y="-1825.04" font-family="Helvetica,sans-Serif" font-size="14.00">get_names_from_partition</text>
</g>
<!-- 3394038364917428603&#45;&gt;815933233050515066 -->
<g id="edge55" class="edge">
<title>3394038364917428603&#45;&gt;815933233050515066</title>
<path fill="none" stroke="black" d="M431.35,-1828.74C438.76,-1828.74 447.35,-1828.74 456.59,-1828.74"/>
<polygon fill="black" stroke="black" points="456.85,-1832.24 466.85,-1828.74 456.85,-1825.24 456.85,-1832.24"/>
</g>
<!-- 7687901232780338369 -->
<g id="node33" class="node">
<title>7687901232780338369</title>
<polygon fill="none" stroke="black" points="144,-1846.74 90,-1846.74 90,-1810.74 144,-1810.74 144,-1846.74"/>
<text text-anchor="middle" x="117" y="-1825.04" font-family="Helvetica,sans-Serif" font-size="14.00">6</text>
</g>
<!-- 7687901232780338369&#45;&gt;5157763901451579499 -->
<g id="edge25" class="edge">
<title>7687901232780338369&#45;&gt;5157763901451579499</title>
<path fill="none" stroke="black" d="M144.3,-1828.74C151.88,-1828.74 160.6,-1828.74 169.78,-1828.74"/>
<polygon fill="black" stroke="black" points="169.89,-1832.24 179.89,-1828.74 169.89,-1825.24 169.89,-1832.24"/>
</g>
<!-- &#45;922521588408206794 -->
<g id="node34" class="node">
<title>&#45;922521588408206794</title>
<ellipse fill="none" stroke="black" cx="260.59" cy="-358.74" rx="80.69" ry="80.69"/>
<text text-anchor="middle" x="260.59" y="-355.04" font-family="Helvetica,sans-Serif" font-size="14.00">to_pyarrow_string</text>
</g>
<!-- 5503321738035058900 -->
<g id="node35" class="node">
<title>5503321738035058900</title>
<polygon fill="none" stroke="black" points="431.19,-376.74 377.19,-376.74 377.19,-340.74 431.19,-340.74 431.19,-376.74"/>
<text text-anchor="middle" x="404.19" y="-355.04" font-family="Helvetica,sans-Serif" font-size="14.00">7</text>
</g>
<!-- &#45;922521588408206794&#45;&gt;5503321738035058900 -->
<g id="edge26" class="edge">
<title>&#45;922521588408206794&#45;&gt;5503321738035058900</title>
<path fill="none" stroke="black" d="M341.49,-358.74C350.29,-358.74 358.9,-358.74 366.76,-358.74"/>
<polygon fill="black" stroke="black" points="366.96,-362.24 376.96,-358.74 366.96,-355.24 366.96,-362.24"/>
</g>
<!-- 4575468917137433180 -->
<g id="node60" class="node">
<title>4575468917137433180</title>
<ellipse fill="none" stroke="black" cx="580.93" cy="-358.74" rx="113.98" ry="113.98"/>
<text text-anchor="middle" x="580.93" y="-355.04" font-family="Helvetica,sans-Serif" font-size="14.00">get_names_from_partition</text>
</g>
<!-- 5503321738035058900&#45;&gt;4575468917137433180 -->
<g id="edge57" class="edge">
<title>5503321738035058900&#45;&gt;4575468917137433180</title>
<path fill="none" stroke="black" d="M431.35,-358.74C438.76,-358.74 447.35,-358.74 456.59,-358.74"/>
<polygon fill="black" stroke="black" points="456.85,-362.24 466.85,-358.74 456.85,-355.24 456.85,-362.24"/>
</g>
<!-- 2794827203807642003 -->
<g id="node36" class="node">
<title>2794827203807642003</title>
<polygon fill="none" stroke="black" points="144,-376.74 90,-376.74 90,-340.74 144,-340.74 144,-376.74"/>
<text text-anchor="middle" x="117" y="-355.04" font-family="Helvetica,sans-Serif" font-size="14.00">7</text>
</g>
<!-- 2794827203807642003&#45;&gt;&#45;922521588408206794 -->
<g id="edge27" class="edge">
<title>2794827203807642003&#45;&gt;&#45;922521588408206794</title>
<path fill="none" stroke="black" d="M144.3,-358.74C151.88,-358.74 160.6,-358.74 169.78,-358.74"/>
<polygon fill="black" stroke="black" points="169.89,-362.24 179.89,-358.74 169.89,-355.24 169.89,-362.24"/>
</g>
<!-- &#45;8127589087588539139 -->
<g id="node37" class="node">
<title>&#45;8127589087588539139</title>
<ellipse fill="none" stroke="black" cx="260.59" cy="-603.74" rx="80.69" ry="80.69"/>
<text text-anchor="middle" x="260.59" y="-600.04" font-family="Helvetica,sans-Serif" font-size="14.00">to_pyarrow_string</text>
</g>
<!-- 610247709062362534 -->
<g id="node38" class="node">
<title>610247709062362534</title>
<polygon fill="none" stroke="black" points="431.19,-621.74 377.19,-621.74 377.19,-585.74 431.19,-585.74 431.19,-621.74"/>
<text text-anchor="middle" x="404.19" y="-600.04" font-family="Helvetica,sans-Serif" font-size="14.00">8</text>
</g>
<!-- &#45;8127589087588539139&#45;&gt;610247709062362534 -->
<g id="edge28" class="edge">
<title>&#45;8127589087588539139&#45;&gt;610247709062362534</title>
<path fill="none" stroke="black" d="M341.49,-603.74C350.29,-603.74 358.9,-603.74 366.76,-603.74"/>
<polygon fill="black" stroke="black" points="366.96,-607.24 376.96,-603.74 366.96,-600.24 366.96,-607.24"/>
</g>
<!-- &#45;8838633282956916622 -->
<g id="node61" class="node">
<title>&#45;8838633282956916622</title>
<ellipse fill="none" stroke="black" cx="580.93" cy="-603.74" rx="113.98" ry="113.98"/>
<text text-anchor="middle" x="580.93" y="-600.04" font-family="Helvetica,sans-Serif" font-size="14.00">get_names_from_partition</text>
</g>
<!-- 610247709062362534&#45;&gt;&#45;8838633282956916622 -->
<g id="edge59" class="edge">
<title>610247709062362534&#45;&gt;&#45;8838633282956916622</title>
<path fill="none" stroke="black" d="M431.35,-603.74C438.76,-603.74 447.35,-603.74 456.59,-603.74"/>
<polygon fill="black" stroke="black" points="456.85,-607.24 466.85,-603.74 456.85,-600.24 456.85,-607.24"/>
</g>
<!-- &#45;9144276113799911188 -->
<g id="node39" class="node">
<title>&#45;9144276113799911188</title>
<polygon fill="none" stroke="black" points="144,-621.74 90,-621.74 90,-585.74 144,-585.74 144,-621.74"/>
<text text-anchor="middle" x="117" y="-600.04" font-family="Helvetica,sans-Serif" font-size="14.00">8</text>
</g>
<!-- &#45;9144276113799911188&#45;&gt;&#45;8127589087588539139 -->
<g id="edge29" class="edge">
<title>&#45;9144276113799911188&#45;&gt;&#45;8127589087588539139</title>
<path fill="none" stroke="black" d="M144.3,-603.74C151.88,-603.74 160.6,-603.74 169.78,-603.74"/>
<polygon fill="black" stroke="black" points="169.89,-607.24 179.89,-603.74 169.89,-600.24 169.89,-607.24"/>
</g>
<!-- 4687708320790976138 -->
<g id="node40" class="node">
<title>4687708320790976138</title>
<ellipse fill="none" stroke="black" cx="260.59" cy="-848.74" rx="80.69" ry="80.69"/>
<text text-anchor="middle" x="260.59" y="-845.04" font-family="Helvetica,sans-Serif" font-size="14.00">to_pyarrow_string</text>
</g>
<!-- 7117888465164360959 -->
<g id="node41" class="node">
<title>7117888465164360959</title>
<polygon fill="none" stroke="black" points="431.19,-866.74 377.19,-866.74 377.19,-830.74 431.19,-830.74 431.19,-866.74"/>
<text text-anchor="middle" x="404.19" y="-845.04" font-family="Helvetica,sans-Serif" font-size="14.00">9</text>
</g>
<!-- 4687708320790976138&#45;&gt;7117888465164360959 -->
<g id="edge30" class="edge">
<title>4687708320790976138&#45;&gt;7117888465164360959</title>
<path fill="none" stroke="black" d="M341.49,-848.74C350.29,-848.74 358.9,-848.74 366.76,-848.74"/>
<polygon fill="black" stroke="black" points="366.96,-852.24 376.96,-848.74 366.96,-845.24 366.96,-852.24"/>
</g>
<!-- &#45;325768146419613996 -->
<g id="node62" class="node">
<title>&#45;325768146419613996</title>
<ellipse fill="none" stroke="black" cx="580.93" cy="-848.74" rx="113.98" ry="113.98"/>
<text text-anchor="middle" x="580.93" y="-845.04" font-family="Helvetica,sans-Serif" font-size="14.00">get_names_from_partition</text>
</g>
<!-- 7117888465164360959&#45;&gt;&#45;325768146419613996 -->
<g id="edge61" class="edge">
<title>7117888465164360959&#45;&gt;&#45;325768146419613996</title>
<path fill="none" stroke="black" d="M431.35,-848.74C438.76,-848.74 447.35,-848.74 456.59,-848.74"/>
<polygon fill="black" stroke="black" points="456.85,-852.24 466.85,-848.74 456.85,-845.24 456.85,-852.24"/>
</g>
<!-- 4409393930936944062 -->
<g id="node42" class="node">
<title>4409393930936944062</title>
<polygon fill="none" stroke="black" points="144,-866.74 90,-866.74 90,-830.74 144,-830.74 144,-866.74"/>
<text text-anchor="middle" x="117" y="-845.04" font-family="Helvetica,sans-Serif" font-size="14.00">9</text>
</g>
<!-- 4409393930936944062&#45;&gt;4687708320790976138 -->
<g id="edge31" class="edge">
<title>4409393930936944062&#45;&gt;4687708320790976138</title>
<path fill="none" stroke="black" d="M144.3,-848.74C151.88,-848.74 160.6,-848.74 169.78,-848.74"/>
<polygon fill="black" stroke="black" points="169.89,-852.24 179.89,-848.74 169.89,-845.24 169.89,-852.24"/>
</g>
<!-- &#45;4502067670884249768 -->
<g id="node43" class="node">
<title>&#45;4502067670884249768</title>
<polygon fill="none" stroke="black" points="54,-1846.74 0,-1846.74 0,-1810.74 54,-1810.74 54,-1846.74"/>
<text text-anchor="middle" x="27" y="-1825.04" font-family="Helvetica,sans-Serif" font-size="14.00">6</text>
</g>
<!-- &#45;4502067670884249768&#45;&gt;7687901232780338369 -->
<g id="edge32" class="edge">
<title>&#45;4502067670884249768&#45;&gt;7687901232780338369</title>
<path fill="none" stroke="black" d="M54.4,-1828.74C62.39,-1828.74 71.31,-1828.74 79.82,-1828.74"/>
<polygon fill="black" stroke="black" points="79.92,-1832.24 89.92,-1828.74 79.92,-1825.24 79.92,-1832.24"/>
</g>
<!-- &#45;3332843742158485758 -->
<g id="node44" class="node">
<title>&#45;3332843742158485758</title>
<polygon fill="none" stroke="black" points="54,-131.74 0,-131.74 0,-95.74 54,-95.74 54,-131.74"/>
<text text-anchor="middle" x="27" y="-110.04" font-family="Helvetica,sans-Serif" font-size="14.00">2</text>
</g>
<!-- &#45;3332843742158485758&#45;&gt;&#45;2543589623568592412 -->
<g id="edge33" class="edge">
<title>&#45;3332843742158485758&#45;&gt;&#45;2543589623568592412</title>
<path fill="none" stroke="black" d="M54.4,-113.74C62.39,-113.74 71.31,-113.74 79.82,-113.74"/>
<polygon fill="black" stroke="black" points="79.92,-117.24 89.92,-113.74 79.92,-110.24 79.92,-117.24"/>
</g>
<!-- 7437035646723303423 -->
<g id="node45" class="node">
<title>7437035646723303423</title>
<polygon fill="none" stroke="black" points="54,-1111.74 0,-1111.74 0,-1075.74 54,-1075.74 54,-1111.74"/>
<text text-anchor="middle" x="27" y="-1090.04" font-family="Helvetica,sans-Serif" font-size="14.00">5</text>
</g>
<!-- 7437035646723303423&#45;&gt;5578617859662708072 -->
<g id="edge34" class="edge">
<title>7437035646723303423&#45;&gt;5578617859662708072</title>
<path fill="none" stroke="black" d="M54.4,-1093.74C62.39,-1093.74 71.31,-1093.74 79.82,-1093.74"/>
<polygon fill="black" stroke="black" points="79.92,-1097.24 89.92,-1093.74 79.92,-1090.24 79.92,-1097.24"/>
</g>
<!-- &#45;7285858326739315837 -->
<g id="node46" class="node">
<title>&#45;7285858326739315837</title>
<polygon fill="none" stroke="black" points="54,-621.74 0,-621.74 0,-585.74 54,-585.74 54,-621.74"/>
<text text-anchor="middle" x="27" y="-600.04" font-family="Helvetica,sans-Serif" font-size="14.00">8</text>
</g>
<!-- &#45;7285858326739315837&#45;&gt;&#45;9144276113799911188 -->
<g id="edge35" class="edge">
<title>&#45;7285858326739315837&#45;&gt;&#45;9144276113799911188</title>
<path fill="none" stroke="black" d="M54.4,-603.74C62.39,-603.74 71.31,-603.74 79.82,-603.74"/>
<polygon fill="black" stroke="black" points="79.92,-607.24 89.92,-603.74 79.92,-600.24 79.92,-607.24"/>
</g>
<!-- &#45;6116634398013551827 -->
<g id="node47" class="node">
<title>&#45;6116634398013551827</title>
<polygon fill="none" stroke="black" points="54,-1356.74 0,-1356.74 0,-1320.74 54,-1320.74 54,-1356.74"/>
<text text-anchor="middle" x="27" y="-1335.04" font-family="Helvetica,sans-Serif" font-size="14.00">4</text>
</g>
<!-- &#45;6116634398013551827&#45;&gt;&#45;929022896439290353 -->
<g id="edge36" class="edge">
<title>&#45;6116634398013551827&#45;&gt;&#45;929022896439290353</title>
<path fill="none" stroke="black" d="M54.4,-1338.74C62.39,-1338.74 71.31,-1338.74 79.82,-1338.74"/>
<polygon fill="black" stroke="black" points="79.92,-1342.24 89.92,-1338.74 79.92,-1335.24 79.92,-1342.24"/>
</g>
<!-- 8606259575449067433 -->
<g id="node48" class="node">
<title>8606259575449067433</title>
<polygon fill="none" stroke="black" points="54,-2336.74 0,-2336.74 0,-2300.74 54,-2300.74 54,-2336.74"/>
<text text-anchor="middle" x="27" y="-2315.04" font-family="Helvetica,sans-Serif" font-size="14.00">1</text>
</g>
<!-- 8606259575449067433&#45;&gt;6747841788388472082 -->
<g id="edge37" class="edge">
<title>8606259575449067433&#45;&gt;6747841788388472082</title>
<path fill="none" stroke="black" d="M54.4,-2318.74C62.39,-2318.74 71.31,-2318.74 79.82,-2318.74"/>
<polygon fill="black" stroke="black" points="79.92,-2322.24 89.92,-2318.74 79.92,-2315.24 79.92,-2322.24"/>
</g>
<!-- 9051602373852605482 -->
<g id="node49" class="node">
<title>9051602373852605482</title>
<polygon fill="none" stroke="black" points="54,-376.74 0,-376.74 0,-340.74 54,-340.74 54,-376.74"/>
<text text-anchor="middle" x="27" y="-355.04" font-family="Helvetica,sans-Serif" font-size="14.00">7</text>
</g>
<!-- 9051602373852605482&#45;&gt;2794827203807642003 -->
<g id="edge38" class="edge">
<title>9051602373852605482&#45;&gt;2794827203807642003</title>
<path fill="none" stroke="black" d="M54.4,-358.74C62.39,-358.74 71.31,-358.74 79.82,-358.74"/>
<polygon fill="black" stroke="black" points="79.92,-362.24 89.92,-358.74 79.92,-355.24 79.92,-362.24"/>
</g>
<!-- 2098618819347069008 -->
<g id="node50" class="node">
<title>2098618819347069008</title>
<polygon fill="none" stroke="black" points="54,-1601.74 0,-1601.74 0,-1565.74 54,-1565.74 54,-1601.74"/>
<text text-anchor="middle" x="27" y="-1580.04" font-family="Helvetica,sans-Serif" font-size="14.00">0</text>
</g>
<!-- 2098618819347069008&#45;&gt;240201032286473657 -->
<g id="edge39" class="edge">
<title>2098618819347069008&#45;&gt;240201032286473657</title>
<path fill="none" stroke="black" d="M54.4,-1583.74C62.39,-1583.74 71.31,-1583.74 79.82,-1583.74"/>
<polygon fill="black" stroke="black" points="79.92,-1587.24 89.92,-1583.74 79.92,-1580.24 79.92,-1587.24"/>
</g>
<!-- &#45;8225917771131182124 -->
<g id="node51" class="node">
<title>&#45;8225917771131182124</title>
<polygon fill="none" stroke="black" points="54,-2091.74 0,-2091.74 0,-2055.74 54,-2055.74 54,-2091.74"/>
<text text-anchor="middle" x="27" y="-2070.04" font-family="Helvetica,sans-Serif" font-size="14.00">3</text>
</g>
<!-- &#45;8225917771131182124&#45;&gt;3964051132533406013 -->
<g id="edge40" class="edge">
<title>&#45;8225917771131182124&#45;&gt;3964051132533406013</title>
<path fill="none" stroke="black" d="M54.4,-2073.74C62.39,-2073.74 71.31,-2073.74 79.82,-2073.74"/>
<polygon fill="black" stroke="black" points="79.92,-2077.24 89.92,-2073.74 79.92,-2070.24 79.92,-2077.24"/>
</g>
<!-- &#45;778217570637317412 -->
<g id="node52" class="node">
<title>&#45;778217570637317412</title>
<polygon fill="none" stroke="black" points="54,-866.74 0,-866.74 0,-830.74 54,-830.74 54,-866.74"/>
<text text-anchor="middle" x="27" y="-845.04" font-family="Helvetica,sans-Serif" font-size="14.00">9</text>
</g>
<!-- &#45;778217570637317412&#45;&gt;4409393930936944062 -->
<g id="edge41" class="edge">
<title>&#45;778217570637317412&#45;&gt;4409393930936944062</title>
<path fill="none" stroke="black" d="M54.4,-848.74C62.39,-848.74 71.31,-848.74 79.82,-848.74"/>
<polygon fill="black" stroke="black" points="79.92,-852.24 89.92,-848.74 79.92,-845.24 79.92,-852.24"/>
</g>
<!-- &#45;1304419619860945772&#45;&gt;6167392332347175526 -->
<g id="edge42" class="edge">
<title>&#45;1304419619860945772&#45;&gt;6167392332347175526</title>
<path fill="none" stroke="black" d="M675.18,-1519.7C691.86,-1508.25 708.25,-1496.99 721.91,-1487.61"/>
<polygon fill="black" stroke="black" points="724.2,-1490.28 730.46,-1481.74 720.24,-1484.51 724.2,-1490.28"/>
</g>
<!-- &#45;7736330199813293682&#45;&gt;&#45;1836370678624441789 -->
<g id="edge44" class="edge">
<title>&#45;7736330199813293682&#45;&gt;&#45;1836370678624441789</title>
<path fill="none" stroke="black" d="M660.1,-2236.87C686.25,-2209.49 713.51,-2180.93 732.37,-2161.18"/>
<polygon fill="black" stroke="black" points="735.05,-2163.45 739.42,-2153.8 729.98,-2158.62 735.05,-2163.45"/>
</g>
<!-- 5509683580339492381&#45;&gt;&#45;6913837333943443683 -->
<g id="edge46" class="edge">
<title>5509683580339492381&#45;&gt;&#45;6913837333943443683</title>
<path fill="none" stroke="black" d="M669.55,-185.45C690.15,-202.3 710.72,-219.14 726.7,-232.22"/>
<polygon fill="black" stroke="black" points="724.66,-235.07 734.61,-238.69 729.09,-229.65 724.66,-235.07"/>
</g>
<!-- &#45;4067772985026709458&#45;&gt;&#45;8453967651920228060 -->
<g id="edge48" class="edge">
<title>&#45;4067772985026709458&#45;&gt;&#45;8453967651920228060</title>
<path fill="none" stroke="black" d="M662.14,-1993.87C687.1,-1969.01 712.85,-1943.37 731.16,-1925.14"/>
<polygon fill="black" stroke="black" points="733.91,-1927.34 738.52,-1917.8 728.97,-1922.38 733.91,-1927.34"/>
</g>
<!-- &#45;1380778483516929653&#45;&gt;7693233135547611086 -->
<g id="edge50" class="edge">
<title>&#45;1380778483516929653&#45;&gt;7693233135547611086</title>
<path fill="none" stroke="black" d="M691.1,-1308.75C701.73,-1305.83 711.89,-1303.04 720.92,-1300.56"/>
<polygon fill="black" stroke="black" points="721.86,-1303.93 730.58,-1297.91 720.01,-1297.18 721.86,-1303.93"/>
</g>
<!-- &#45;5709590469486948277&#45;&gt;&#45;5898944572577176530 -->
<g id="edge52" class="edge">
<title>&#45;5709590469486948277&#45;&gt;&#45;5898944572577176530</title>
<path fill="none" stroke="black" d="M681.29,-1147.76C695.6,-1155.54 709.47,-1163.08 721.33,-1169.53"/>
<polygon fill="black" stroke="black" points="719.92,-1172.75 730.38,-1174.45 723.27,-1166.6 719.92,-1172.75"/>
</g>
<!-- 815933233050515066&#45;&gt;&#45;3301467539002074172 -->
<g id="edge54" class="edge">
<title>815933233050515066&#45;&gt;&#45;3301467539002074172</title>
<path fill="none" stroke="black" d="M666.22,-1753.48C688.72,-1733.39 711.5,-1713.06 728.56,-1697.83"/>
<polygon fill="black" stroke="black" points="731.33,-1700.05 736.46,-1690.78 726.66,-1694.83 731.33,-1700.05"/>
</g>
<!-- 4575468917137433180&#45;&gt;&#45;8093508103757164936 -->
<g id="edge56" class="edge">
<title>4575468917137433180&#45;&gt;&#45;8093508103757164936</title>
<path fill="none" stroke="black" d="M663.71,-436.96C675.24,-450.74 686.07,-465.56 694.67,-480.74 728.91,-541.21 745.74,-622.31 752.65,-664.52"/>
<polygon fill="black" stroke="black" points="749.23,-665.29 754.24,-674.62 756.14,-664.2 749.23,-665.29"/>
</g>
<!-- &#45;8838633282956916622&#45;&gt;&#45;4658518901276857483 -->
<g id="edge58" class="edge">
<title>&#45;8838633282956916622&#45;&gt;&#45;4658518901276857483</title>
<path fill="none" stroke="black" d="M663.71,-681.96C675.24,-695.74 686.07,-710.56 694.67,-725.74 728.91,-786.21 745.74,-867.31 752.65,-909.52"/>
<polygon fill="black" stroke="black" points="749.23,-910.29 754.24,-919.62 756.14,-909.2 749.23,-910.29"/>
</g>
<!-- &#45;325768146419613996&#45;&gt;7781059567431018160 -->
<g id="edge60" class="edge">
<title>&#45;325768146419613996&#45;&gt;7781059567431018160</title>
<path fill="none" stroke="black" d="M661.64,-929.32C673.3,-942.69 684.72,-956.76 694.67,-970.74 714.91,-999.19 733.09,-1035.05 744.45,-1059.31"/>
<polygon fill="black" stroke="black" points="741.38,-1061.01 748.75,-1068.62 747.74,-1058.08 741.38,-1061.01"/>
</g>
<!-- 343161088395787957 -->
<g id="node64" class="node">
<title>343161088395787957</title>
<polygon fill="none" stroke="black" points="1295.34,-1233.74 1241.34,-1233.74 1241.34,-1197.74 1295.34,-1197.74 1295.34,-1233.74"/>
</g>
<!-- &#45;5414208751868686205&#45;&gt;343161088395787957 -->
<g id="edge62" class="edge">
<title>&#45;5414208751868686205&#45;&gt;343161088395787957</title>
<path fill="none" stroke="black" d="M1205.45,-1215.74C1214.39,-1215.74 1223.08,-1215.74 1230.99,-1215.74"/>
<polygon fill="black" stroke="black" points="1231.22,-1219.24 1241.22,-1215.74 1231.22,-1212.24 1231.22,-1219.24"/>
</g>
</g>
</svg>
